<svg width="215" height="66" viewBox="0 0 215 66" fill="none" xmlns="http://www.w3.org/2000/svg">
<g clip-path="url(#clip0_6511_1893)">
<g clip-path="url(#clip1_6511_1893)">
<mask id="mask0_6511_1893" style="mask-type:luminance" maskUnits="userSpaceOnUse" x="0" y="6" width="78" height="60">
<path d="M78.0001 6H0V66H78.0001V6Z" fill="white"/>
</mask>
<g mask="url(#mask0_6511_1893)">
<path opacity="0.8" d="M58.4465 45.9405C65.873 46.7097 72.7872 38.704 73.8897 28.0594C74.9922 17.4147 69.8656 8.16192 62.4391 7.39273C55.0126 6.62355 48.0984 14.6292 46.9959 25.2739C45.8934 35.9186 51.02 45.1713 58.4465 45.9405Z" fill="#FDC040"/>
<path d="M47.3154 51.0434C54.3811 48.631 57.306 38.4653 53.8482 28.3377C50.3904 18.2101 41.8594 11.9557 34.7937 14.3681C27.7279 16.7805 24.8031 26.9461 28.2608 37.0738C31.7186 47.2014 40.2496 53.4558 47.3154 51.0434Z" fill="#FDC040"/>
<path d="M27 39H75.0709C75.4546 39.1667 76.337 39.8 76.7973 41C77.3728 42.5 79 64.5 51.5 60C29.8624 60 24.8134 59.3333 25.0052 59C29 58 29.5 54 30 51C30.5 48 27 39 27 39Z" fill="#81B13D"/>
<path d="M63.1153 18.4324C62.4841 18.4324 61.9727 18.944 61.9727 19.575V19.7575C61.9727 20.3887 62.4841 20.9001 63.1153 20.9001C63.7465 20.9001 64.2579 20.3887 64.2579 19.7575V19.575C64.2579 18.9438 63.7465 18.4324 63.1153 18.4324Z" fill="#253D4E"/>
<path d="M66.084 23.5298C65.4529 23.5298 64.9414 24.0412 64.9414 24.6723V24.8548C64.9414 25.4859 65.4529 25.9974 66.084 25.9974C66.7152 25.9974 67.2266 25.486 67.2266 24.8548V24.6723C67.2266 24.0412 66.7152 23.5298 66.084 23.5298Z" fill="#253D4E"/>
<path d="M41.0684 22.4568L40.9838 22.2949C40.6918 21.7353 40.0012 21.5185 39.4423 21.8107C38.8828 22.1028 38.6661 22.7929 38.9581 23.3523L39.0427 23.5142C39.2463 23.9048 39.6444 24.1285 40.0564 24.1285C40.2346 24.1285 40.4153 24.0867 40.5842 23.9984C41.1436 23.7063 41.3604 23.0162 41.0684 22.4568Z" fill="#253D4E"/>
<path d="M46.0566 25.6016L45.972 25.4397C45.68 24.8801 44.9896 24.6633 44.4305 24.9555C43.871 25.2476 43.6543 25.9377 43.9463 26.4971L44.0309 26.6591C44.2345 27.0497 44.6325 27.2733 45.0446 27.2733C45.2228 27.2733 45.4035 27.2316 45.5724 27.1432C46.1318 26.8512 46.3486 26.161 46.0566 25.6016Z" fill="#253D4E"/>
<path d="M38.9467 48.334L35.5482 44.9353C35.1019 44.4891 34.3784 44.489 33.9325 44.9352C33.4861 45.3814 33.4861 46.1049 33.9323 46.5509L37.3308 49.9496C37.554 50.1728 37.8462 50.2843 38.1387 50.2843C38.431 50.2843 38.7235 50.1728 38.9466 49.9498C39.3929 49.5035 39.3929 48.7801 38.9467 48.334Z" fill="#253D4E"/>
<path d="M49.0436 46.2047C48.6778 45.6907 47.9646 45.5703 47.4502 45.9365L35.5894 54.3807C35.0754 54.7466 34.9553 55.4601 35.3213 55.9741C35.5441 56.2873 35.8957 56.4541 36.253 56.4541C36.4821 56.4541 36.7137 56.3853 36.9146 56.2422L48.7754 47.798C49.2894 47.4321 49.4095 46.7187 49.0436 46.2047Z" fill="#253D4E"/>
<path d="M53.2394 47.9281C52.8738 47.4141 52.1604 47.2938 51.646 47.66L47.0932 50.9013C46.5791 51.2675 46.4592 51.9808 46.8251 52.4948C47.048 52.808 47.3997 52.9749 47.7569 52.9749C47.9861 52.9749 48.2174 52.906 48.4185 52.7628L52.9714 49.5215C53.4855 49.1556 53.6053 48.4422 53.2394 47.9281Z" fill="#253D4E"/>
<path d="M77.7842 42.7437C77.4149 42.2318 76.701 42.1163 76.189 42.4851L75.8084 42.7595C75.81 42.6615 75.8122 42.5637 75.8122 42.4655C75.8122 41.3755 75.3881 40.3499 74.6157 39.5754C73.8435 38.8051 72.8178 38.381 71.7279 38.381H71.3897C72.6436 35.9582 73.2803 33.0408 73.2803 29.6729C73.2803 23.068 70.8044 15.8484 66.9728 11.2804C66.5671 10.7968 65.8465 10.7335 65.3631 11.1393C64.8797 11.5449 64.8165 12.2656 65.222 12.749C68.7291 16.9299 70.9953 23.5731 70.9953 29.6729C70.9953 33.1883 70.2396 36.1142 68.7493 38.381H66.4871L67.4922 37.6654C68.0064 37.2995 68.1263 36.586 67.7604 36.072C67.3946 35.558 66.6815 35.4377 66.167 35.8039L62.5473 38.381H55.7509C56.4358 34.9116 55.7224 31.0357 53.6525 27.0708C52.1708 24.2335 50.0665 21.4881 47.6459 19.1621C50.1391 12.8558 54.2652 8.82155 58.2856 8.82155C59.4998 8.82155 60.7234 9.17483 61.9222 9.87196C62.4678 10.1888 63.1672 10.0037 63.4844 9.45835C63.8014 8.9128 63.6163 8.21339 63.0708 7.89621C61.5185 6.99387 59.9085 6.53638 58.2856 6.53638C53.4217 6.53638 48.7447 10.7158 45.8366 17.5515C44.8461 16.7365 43.8196 15.9954 42.7739 15.3497C37.8518 12.3098 33.1909 11.6538 29.6503 13.5022C26.3845 15.2089 24.2927 18.9933 23.7598 24.1582C23.6949 24.7859 24.1513 25.3473 24.7789 25.4119C25.4081 25.4777 25.9681 25.0202 26.0326 24.3927C26.4843 20.0157 28.1448 16.8673 30.708 15.5276C36.9487 12.2696 47.2551 19.7573 51.6268 28.1285C53.5712 31.853 54.1694 35.2972 53.4124 38.3811H40.6019C40.5987 38.3811 40.5957 38.3811 40.5925 38.3811H34.7376L32.82 36.4636C32.3736 36.0175 31.6503 36.0175 31.2041 36.4636C30.7579 36.9099 30.7579 37.6333 31.2041 38.0795L31.5056 38.381H28.3688C27.0961 35.4884 26.2594 32.1668 26 28.9446C25.9494 28.3157 25.3991 27.8454 24.7695 27.8974C24.1405 27.948 23.6717 28.4988 23.7223 29.1279C23.933 31.7464 24.4735 34.3519 25.3077 36.8109C22.0512 34.0359 17.7976 32.5446 13.4181 32.7825C13.0099 32.8047 12.6445 33.0434 12.4604 33.4083C10.7421 36.8106 10.259 40.6509 10.9716 44.2877C10.9783 44.398 11.0001 44.5039 11.0358 44.6033C11.2597 45.641 11.5827 46.66 12.0019 47.6461C7.11142 48.4046 2.76853 51.2872 0.165419 55.5811C-0.0464928 55.9306 -0.0553288 56.3668 0.141958 56.7249C1.98304 60.0662 4.88506 62.6333 8.29438 64.096C8.38533 64.1493 8.48024 64.1897 8.57789 64.2156C10.4607 64.9832 12.491 65.417 14.5789 65.4601C14.6933 65.4625 14.8065 65.4636 14.9206 65.4636C15.7333 65.4636 16.5385 65.4022 17.3317 65.2869C17.4064 65.2824 17.4806 65.2728 17.5526 65.2541C20.9109 64.7198 24.0331 63.1777 26.498 60.8606C26.5539 60.869 26.6106 60.8748 26.6688 60.8748H31.7958C32.4269 60.8748 32.9384 60.3634 32.9384 59.7322C32.9384 59.1011 32.4269 58.5896 31.7958 58.5896H28.5152C28.815 58.1832 29.0991 57.7626 29.3636 57.3262C29.3717 57.3128 29.3782 57.2988 29.3857 57.2853C29.3925 57.2729 29.4008 57.2617 29.4072 57.2489C32.0685 51.9765 31.7673 45.653 28.6403 40.6661H33.7907L36.9015 43.7769C37.1246 43.9999 37.4171 44.1114 37.7095 44.1114C38.0018 44.1114 38.2943 43.9999 38.5175 43.7769C38.9637 43.3305 38.9637 42.6072 38.5175 42.1609L37.0227 40.6661H40.124L44.3659 44.908C44.5891 45.1311 44.8816 45.2426 45.1739 45.2426C45.4663 45.2426 45.7588 45.1311 45.982 44.908C46.4282 44.4617 46.4282 43.7383 45.982 43.2921L43.3561 40.6663H54.2707L54.2745 40.6666L54.2783 40.6663H59.3379L56.8434 42.4422C56.3292 42.8081 56.2093 43.5215 56.5752 44.0355C56.7981 44.3488 57.1497 44.5156 57.507 44.5156C57.7361 44.5156 57.9675 44.4467 58.1686 44.3035L63.2776 40.6661H69.3446L69.3466 40.6663L69.3492 40.6661H71.7287C72.2093 40.6661 72.6619 40.8534 73.0007 41.1911C73.3406 41.5319 73.5278 41.9845 73.5278 42.4653C73.5278 43.1532 73.4843 43.8309 73.4003 44.4964L65.0107 50.5457C64.499 50.9148 64.3832 51.6289 64.7522 52.1409C64.9757 52.4506 65.3253 52.6153 65.68 52.6153C65.9115 52.6153 66.1452 52.5451 66.3474 52.3994L72.5835 47.903C71.3376 51.37 68.936 54.2902 65.8453 56.1972L53.1032 43.4551C52.6568 43.009 51.9335 43.009 51.4872 43.4551C51.041 43.9015 51.041 44.6248 51.4872 45.071L63.7173 57.3011C62.0612 58.0086 60.2634 58.446 58.3795 58.559L53.3982 53.578C52.9522 53.1319 52.2287 53.1317 51.7825 53.5781C51.3363 54.0243 51.3363 54.7477 51.7826 55.1939L55.1782 58.5893H43.9925L42.1593 56.7562C41.713 56.3101 40.9896 56.3101 40.5434 56.7562C40.0972 57.2025 40.0972 57.9259 40.5434 58.3721L40.7606 58.5893H36.5561C35.9249 58.5893 35.4135 59.1008 35.4135 59.7319C35.4135 60.3631 35.9249 60.8745 36.5561 60.8745H43.0448L45.6218 63.4516C45.845 63.6746 46.1375 63.7861 46.4299 63.7861C46.7222 63.7861 47.0147 63.6746 47.2379 63.4516C47.6841 63.0052 47.6841 62.2819 47.2379 61.8356L46.2767 60.8745H57.4014C60.2819 60.8745 63.0097 60.2089 65.44 59.0246L66.3998 59.9844C66.623 60.2074 66.9155 60.3189 67.2078 60.3189C67.5002 60.3189 67.7927 60.2074 68.0159 59.9844C68.4621 59.538 68.4621 58.8147 68.0159 58.3684L67.4985 57.8511C71.618 55.139 74.5889 50.8195 75.5105 45.7918L77.5258 44.3387C78.0374 43.9697 78.1532 43.2557 77.7842 42.7437ZM26.5598 41.651C26.688 41.8471 26.8092 42.0465 26.9271 42.2475L24.0349 47.9864L20.7325 42.9332L23.0437 37.9276C24.4087 38.9389 25.606 40.1916 26.5598 41.651ZM22.7837 50.2489L16.4847 50.5661C16.0601 50.0763 15.6651 49.5562 15.3055 49.0059C14.5542 47.8562 13.9809 46.6198 13.586 45.3373L19.5107 45.2406L22.7837 50.2489ZM21.0907 36.7059L19.2575 40.676L15.614 35.1008C17.5407 35.2719 19.4009 35.8249 21.0907 36.7059ZM13.7004 36.3496L18.033 42.9792L13.0787 43.0601C12.7652 40.8232 12.969 38.5214 13.7004 36.3496ZM13.1098 49.8074C13.2017 49.9578 13.2957 50.1075 13.3925 50.2559C13.9002 51.0327 14.4679 51.758 15.0859 52.43C15.131 52.4887 15.1817 52.5426 15.237 52.5915C16.2633 53.6785 17.4242 54.6185 18.6844 55.3921L12.6729 55.2685L9.83869 50.5282C10.8882 50.1657 11.9846 49.9218 13.1098 49.8074ZM7.72674 51.4488L9.97717 55.2129L3.31545 55.076C4.54304 53.5766 6.04501 52.3479 7.72674 51.4488ZM8.45997 61.6594C6.43608 60.6562 4.65045 59.1894 3.2702 57.3605L11.188 57.5234L8.45997 61.6594ZM16.5787 63.0818C15.9347 63.1563 15.2824 63.1885 14.6253 63.1755C13.2522 63.147 11.9078 62.9228 10.6264 62.5253L13.8889 57.5788L19.8704 57.7018L16.5787 63.0818ZM19.6943 62.3681L22.516 57.7563L25.9844 57.8276C26.0557 57.8342 26.1273 57.8389 26.1988 57.8445C24.4794 59.9318 22.218 61.4909 19.6943 62.3681ZM26.1179 55.5449C23.4668 55.2851 20.9464 54.3021 18.8297 52.7361L24.2311 52.464L26.2462 55.5475L26.1179 55.5449ZM28.1656 54.3074L25.4796 50.1973L28.1456 44.9071C29.1774 47.9356 29.1945 51.2503 28.1656 54.3074Z" fill="#253D4E"/>
<path d="M66.5722 44.7025C66.203 44.1906 65.4889 44.0752 64.9772 44.4441L60.9509 47.3474C60.4391 47.7164 60.3234 48.4304 60.6925 48.9424C60.9158 49.2521 61.2655 49.4168 61.6201 49.4168C61.8518 49.4168 62.0854 49.3466 62.2875 49.2008L66.3139 46.2976C66.8256 45.9286 66.9414 45.2145 66.5722 44.7025Z" fill="#253D4E"/>
</g>
<path d="M95.0321 61L95.0212 55.9424L92.5142 60.128H91.882L89.375 56.0078V61H88.0234V53.37H89.1897L92.2199 58.4276L95.1956 53.37H96.3619L96.3728 61H95.0321ZM104.473 59.2342H100.658L99.9053 61H98.4447L101.878 53.37H103.274L106.718 61H105.236L104.473 59.2342ZM104.004 58.1224L102.565 54.787L101.137 58.1224H104.004ZM113.771 61L112.212 58.7655C112.146 58.7728 112.048 58.7764 111.918 58.7764H110.195V61H108.778V53.37H111.918C112.579 53.37 113.153 53.479 113.64 53.697C114.134 53.915 114.512 54.2275 114.773 54.6344C115.035 55.0413 115.166 55.5246 115.166 56.0841C115.166 56.6582 115.024 57.1523 114.741 57.5665C114.464 57.9807 114.065 58.2895 113.542 58.493L115.297 61H113.771ZM113.738 56.0841C113.738 55.5972 113.578 55.223 113.258 54.9614C112.938 54.6998 112.47 54.569 111.852 54.569H110.195V57.6101H111.852C112.47 57.6101 112.938 57.4793 113.258 57.2177C113.578 56.9488 113.738 56.571 113.738 56.0841ZM119.282 54.569H116.754V53.37H123.228V54.569H120.699V61H119.282V54.569ZM135.207 61.1199L134.247 60.1934C133.535 60.8038 132.681 61.109 131.686 61.109C131.155 61.109 130.679 61.0218 130.258 60.8474C129.836 60.673 129.506 60.4332 129.266 60.128C129.026 59.8155 128.906 59.4631 128.906 59.0707C128.906 58.5984 129.044 58.1842 129.321 57.8281C129.597 57.4648 130.047 57.1087 130.672 56.7599C130.367 56.4547 130.149 56.1713 130.018 55.9097C129.887 55.6408 129.822 55.3647 129.822 55.0813C129.822 54.5436 130.022 54.1112 130.421 53.7842C130.828 53.4499 131.366 53.2828 132.035 53.2828C132.652 53.2828 133.146 53.4354 133.517 53.7406C133.888 54.0385 134.073 54.4455 134.073 54.9614C134.073 55.3538 133.949 55.7026 133.702 56.0078C133.463 56.313 133.067 56.6218 132.514 56.9343L134.16 58.5039C134.342 58.1478 134.484 57.7191 134.585 57.2177L135.686 57.5774C135.541 58.2532 135.312 58.8345 134.999 59.3214L135.959 60.237L135.207 61.1199ZM132.035 54.2529C131.737 54.2529 131.501 54.3292 131.326 54.4818C131.152 54.6271 131.065 54.8197 131.065 55.0595C131.065 55.2339 131.112 55.401 131.206 55.5609C131.301 55.7135 131.482 55.9242 131.751 56.1931C132.187 55.9533 132.489 55.7462 132.656 55.5718C132.83 55.3901 132.918 55.1939 132.918 54.9832C132.918 54.7579 132.838 54.5799 132.678 54.4491C132.525 54.3183 132.311 54.2529 132.035 54.2529ZM131.784 59.9972C132.416 59.9972 132.968 59.8046 133.441 59.4195L131.424 57.4902C130.988 57.73 130.679 57.9625 130.498 58.1878C130.323 58.4058 130.236 58.6529 130.236 58.929C130.236 59.2487 130.378 59.5067 130.661 59.7029C130.945 59.8991 131.319 59.9972 131.784 59.9972ZM147.583 57.0978H148.923V60.1389C148.531 60.4514 148.073 60.6912 147.55 60.8583C147.027 61.0254 146.489 61.109 145.937 61.109C145.159 61.109 144.458 60.9419 143.833 60.6076C143.208 60.2661 142.718 59.7974 142.362 59.2015C142.005 58.6056 141.827 57.9335 141.827 57.185C141.827 56.4365 142.005 55.7644 142.362 55.1685C142.718 54.5726 143.208 54.1076 143.833 53.7733C144.465 53.4318 145.174 53.261 145.959 53.261C146.598 53.261 147.179 53.3664 147.703 53.5771C148.226 53.7878 148.665 54.0967 149.021 54.5036L148.128 55.3756C147.546 54.7943 146.845 54.5036 146.024 54.5036C145.486 54.5036 145.007 54.6162 144.585 54.8415C144.171 55.0668 143.844 55.3829 143.604 55.7898C143.372 56.1967 143.255 56.6618 143.255 57.185C143.255 57.6937 143.372 58.1515 143.604 58.5584C143.844 58.9653 144.171 59.2851 144.585 59.5176C145.007 59.7501 145.483 59.8664 146.013 59.8664C146.609 59.8664 147.132 59.7356 147.583 59.474V57.0978ZM156.874 61L155.316 58.7655C155.25 58.7728 155.152 58.7764 155.021 58.7764H153.299V61H151.882V53.37H155.021C155.683 53.37 156.257 53.479 156.744 53.697C157.238 53.915 157.616 54.2275 157.877 54.6344C158.139 55.0413 158.27 55.5246 158.27 56.0841C158.27 56.6582 158.128 57.1523 157.845 57.5665C157.568 57.9807 157.169 58.2895 156.646 58.493L158.4 61H156.874ZM156.842 56.0841C156.842 55.5972 156.682 55.223 156.362 54.9614C156.042 54.6998 155.574 54.569 154.956 54.569H153.299V57.6101H154.956C155.574 57.6101 156.042 57.4793 156.362 57.2177C156.682 56.9488 156.842 56.571 156.842 56.0841ZM164.509 61.109C163.732 61.109 163.031 60.9419 162.406 60.6076C161.781 60.2661 161.29 59.7974 160.934 59.2015C160.578 58.5984 160.4 57.9262 160.4 57.185C160.4 56.4438 160.578 55.7753 160.934 55.1794C161.29 54.5763 161.781 54.1076 162.406 53.7733C163.031 53.4318 163.732 53.261 164.509 53.261C165.287 53.261 165.988 53.4318 166.613 53.7733C167.238 54.1076 167.728 54.5726 168.085 55.1685C168.441 55.7644 168.619 56.4365 168.619 57.185C168.619 57.9335 168.441 58.6056 168.085 59.2015C167.728 59.7974 167.238 60.2661 166.613 60.6076C165.988 60.9419 165.287 61.109 164.509 61.109ZM164.509 59.8664C165.018 59.8664 165.476 59.7538 165.883 59.5285C166.29 59.296 166.609 58.9762 166.842 58.5693C167.074 58.1551 167.191 57.6937 167.191 57.185C167.191 56.6763 167.074 56.2185 166.842 55.8116C166.609 55.3974 166.29 55.0777 165.883 54.8524C165.476 54.6199 165.018 54.5036 164.509 54.5036C164.001 54.5036 163.543 54.6199 163.136 54.8524C162.729 55.0777 162.409 55.3974 162.177 55.8116C161.944 56.2185 161.828 56.6763 161.828 57.185C161.828 57.6937 161.944 58.1551 162.177 58.5693C162.409 58.9762 162.729 59.296 163.136 59.5285C163.543 59.7538 164.001 59.8664 164.509 59.8664ZM174.742 61.109C173.972 61.109 173.274 60.9419 172.649 60.6076C172.032 60.2661 171.545 59.7974 171.189 59.2015C170.84 58.6056 170.666 57.9335 170.666 57.185C170.666 56.4365 170.844 55.7644 171.2 55.1685C171.556 54.5726 172.043 54.1076 172.66 53.7733C173.285 53.4318 173.983 53.261 174.753 53.261C175.378 53.261 175.948 53.37 176.464 53.588C176.98 53.806 177.416 54.1221 177.772 54.5363L176.857 55.3974C176.305 54.8015 175.625 54.5036 174.819 54.5036C174.295 54.5036 173.827 54.6199 173.412 54.8524C172.998 55.0777 172.675 55.3938 172.442 55.8007C172.21 56.2076 172.094 56.6691 172.094 57.185C172.094 57.7009 172.21 58.1624 172.442 58.5693C172.675 58.9762 172.998 59.296 173.412 59.5285C173.827 59.7538 174.295 59.8664 174.819 59.8664C175.625 59.8664 176.305 59.5648 176.857 58.9617L177.772 59.8337C177.416 60.2479 176.977 60.564 176.454 60.782C175.938 61 175.367 61.109 174.742 61.109ZM185.943 59.8119V61H180.22V53.37H185.79V54.5581H181.637V56.5419H185.321V57.7082H181.637V59.8119H185.943ZM193.604 61L192.046 58.7655C191.98 58.7728 191.882 58.7764 191.751 58.7764H190.029V61H188.612V53.37H191.751C192.413 53.37 192.987 53.479 193.474 53.697C193.968 53.915 194.346 54.2275 194.607 54.6344C194.869 55.0413 195 55.5246 195 56.0841C195 56.6582 194.858 57.1523 194.575 57.5665C194.298 57.9807 193.899 58.2895 193.376 58.493L195.13 61H193.604ZM193.572 56.0841C193.572 55.5972 193.412 55.223 193.092 54.9614C192.772 54.6998 192.304 54.569 191.686 54.569H190.029V57.6101H191.686C192.304 57.6101 192.772 57.4793 193.092 57.2177C193.412 56.9488 193.572 56.571 193.572 56.0841ZM200.86 58.3077V61H199.443V58.3295L196.446 53.37H197.961L200.195 57.0869L202.452 53.37H203.847L200.86 58.3077Z" fill="#253D4E"/>
<path d="M117.635 7.1499C118.523 7.1499 119.245 7.4459 119.8 8.0379C120.355 8.6299 120.632 9.3699 120.632 10.2579V42.6144C120.632 43.5764 120.299 44.3904 119.633 45.0564C119.004 45.6854 118.209 45.9999 117.247 45.9999C116.766 45.9999 116.266 45.9259 115.748 45.7779C115.267 45.5929 114.897 45.3524 114.638 45.0564L92.8261 17.3619L94.2691 16.4739V42.8919C94.2691 43.7799 93.9731 44.5199 93.3811 45.1119C92.8261 45.7039 92.0861 45.9999 91.1611 45.9999C90.2731 45.9999 89.5516 45.7039 88.9966 45.1119C88.4416 44.5199 88.1641 43.7799 88.1641 42.8919V10.5354C88.1641 9.5734 88.4786 8.7779 89.1076 8.1489C89.7736 7.4829 90.5876 7.1499 91.5496 7.1499C92.0676 7.1499 92.6041 7.2609 93.1591 7.4829C93.7141 7.6679 94.1211 7.9639 94.3801 8.3709L115.526 35.3439L114.582 36.0099V10.2579C114.582 9.3699 114.86 8.6299 115.415 8.0379C115.97 7.4459 116.71 7.1499 117.635 7.1499ZM142.108 46.5549C138.963 46.5549 136.225 45.9074 133.894 44.6124C131.6 43.2804 129.824 41.4859 128.566 39.2289C127.345 36.9719 126.734 34.4189 126.734 31.5699C126.734 28.2399 127.4 25.4094 128.732 23.0784C130.101 20.7104 131.877 18.8974 134.06 17.6394C136.243 16.3814 138.556 15.7524 140.998 15.7524C142.885 15.7524 144.661 16.1409 146.326 16.9179C148.028 17.6949 149.526 18.7679 150.821 20.1369C152.116 21.4689 153.134 23.0229 153.874 24.7989C154.651 26.5749 155.039 28.4619 155.039 30.4599C155.002 31.3479 154.651 32.0694 153.985 32.6244C153.319 33.1794 152.542 33.4569 151.654 33.4569H130.453L128.788 27.9069H149.156L147.935 29.0169V27.5184C147.861 26.4454 147.473 25.4834 146.77 24.6324C146.104 23.7814 145.253 23.1154 144.217 22.6344C143.218 22.1164 142.145 21.8574 140.998 21.8574C139.888 21.8574 138.852 22.0054 137.89 22.3014C136.928 22.5974 136.095 23.0969 135.392 23.7999C134.689 24.5029 134.134 25.4464 133.727 26.6304C133.32 27.8144 133.117 29.3129 133.117 31.1259C133.117 33.1239 133.524 34.8259 134.338 36.2319C135.189 37.6009 136.262 38.6554 137.557 39.3954C138.889 40.0984 140.295 40.4499 141.775 40.4499C143.144 40.4499 144.235 40.3389 145.049 40.1169C145.863 39.8949 146.511 39.6359 146.992 39.3399C147.51 39.0069 147.972 38.7294 148.379 38.5074C149.045 38.1744 149.674 38.0079 150.266 38.0079C151.08 38.0079 151.746 38.2854 152.264 38.8404C152.819 39.3954 153.097 40.0429 153.097 40.7829C153.097 41.7819 152.579 42.6884 151.543 43.5024C150.581 44.3164 149.23 45.0379 147.491 45.6669C145.752 46.2589 143.958 46.5549 142.108 46.5549ZM158.851 41.3934C158.481 40.8754 158.314 40.2094 158.351 39.3954C158.388 38.5814 158.869 37.8784 159.794 37.2864C160.386 36.9164 161.015 36.7684 161.681 36.8424C162.347 36.8794 162.995 37.2124 163.624 37.8414C164.697 38.9144 165.825 39.7469 167.009 40.3389C168.193 40.9309 169.673 41.2269 171.449 41.2269C172.004 41.1899 172.615 41.1159 173.281 41.0049C173.947 40.8569 174.52 40.5609 175.001 40.1169C175.519 39.6359 175.778 38.9144 175.778 37.9524C175.778 37.1384 175.501 36.4909 174.946 36.0099C174.391 35.5289 173.651 35.1219 172.726 34.7889C171.838 34.4559 170.839 34.1414 169.729 33.8454C168.582 33.5124 167.398 33.1424 166.177 32.7354C164.993 32.3284 163.901 31.8104 162.902 31.1814C161.903 30.5154 161.089 29.6459 160.46 28.5729C159.831 27.4999 159.517 26.1494 159.517 24.5214C159.517 22.6714 160.035 21.0989 161.071 19.8039C162.107 18.5089 163.439 17.5099 165.067 16.8069C166.732 16.1039 168.471 15.7524 170.284 15.7524C171.431 15.7524 172.633 15.9004 173.891 16.1964C175.149 16.4554 176.352 16.8994 177.499 17.5284C178.646 18.1204 179.608 18.9159 180.385 19.9149C180.792 20.4699 181.032 21.1359 181.106 21.9129C181.18 22.6899 180.829 23.3929 180.052 24.0219C179.497 24.4659 178.849 24.6694 178.109 24.6324C177.369 24.5584 176.759 24.2994 176.278 23.8554C175.649 23.0414 174.798 22.3939 173.725 21.9129C172.689 21.4319 171.486 21.1914 170.117 21.1914C169.562 21.1914 168.952 21.2654 168.286 21.4134C167.657 21.5244 167.102 21.8019 166.621 22.2459C166.14 22.6529 165.899 23.3189 165.899 24.2439C165.899 25.0949 166.177 25.7794 166.732 26.2974C167.287 26.7784 168.027 27.1854 168.952 27.5184C169.914 27.8144 170.931 28.1104 172.004 28.4064C173.114 28.7024 174.243 29.0539 175.39 29.4609C176.537 29.8679 177.591 30.4044 178.553 31.0704C179.515 31.7364 180.292 32.6059 180.884 33.6789C181.476 34.7149 181.772 36.0469 181.772 37.6749C181.772 39.5619 181.217 41.1714 180.107 42.5034C178.997 43.8354 177.61 44.8529 175.945 45.5559C174.28 46.2219 172.578 46.5549 170.839 46.5549C168.656 46.5549 166.473 46.1849 164.29 45.4449C162.107 44.6679 160.294 43.3174 158.851 41.3934ZM187.657 16.8624H200.81C201.698 16.8624 202.438 17.1584 203.03 17.7504C203.622 18.3424 203.918 19.0824 203.918 19.9704C203.918 20.8214 203.622 21.5429 203.03 22.1349C202.438 22.6899 201.698 22.9674 200.81 22.9674H187.657C186.769 22.9674 186.029 22.6714 185.437 22.0794C184.845 21.4874 184.549 20.7474 184.549 19.8594C184.549 19.0084 184.845 18.3054 185.437 17.7504C186.029 17.1584 186.769 16.8624 187.657 16.8624ZM193.595 9.9249C194.557 9.9249 195.334 10.2579 195.926 10.9239C196.555 11.5529 196.87 12.3484 196.87 13.3104V38.0079C196.87 38.5259 196.962 38.9514 197.147 39.2844C197.369 39.6174 197.647 39.8579 197.98 40.0059C198.35 40.1539 198.738 40.2279 199.145 40.2279C199.589 40.2279 199.996 40.1539 200.366 40.0059C200.736 39.8209 201.162 39.7284 201.643 39.7284C202.161 39.7284 202.623 39.9689 203.03 40.4499C203.474 40.9309 203.696 41.5969 203.696 42.4479C203.696 43.4839 203.123 44.3349 201.976 45.0009C200.866 45.6669 199.663 45.9999 198.368 45.9999C197.591 45.9999 196.722 45.9444 195.76 45.8334C194.835 45.6854 193.947 45.3709 193.096 44.8899C192.282 44.3719 191.597 43.5949 191.042 42.5589C190.487 41.5229 190.21 40.0984 190.21 38.2854V13.3104C190.21 12.3484 190.524 11.5529 191.153 10.9239C191.819 10.2579 192.633 9.9249 193.595 9.9249Z" fill="#3BB77E"/>
</g>
</g>
<defs>
<clipPath id="clip0_6511_1893">
<rect width="215" height="66" fill="white"/>
</clipPath>
<clipPath id="clip1_6511_1893">
<rect width="215" height="66" fill="white"/>
</clipPath>
</defs>
</svg>
